# xmcd CD database file
# Generated: Sat Aug 6 23:13:14 2005 by KSCD
# 
# Track frame offsets:
#       150
#       14752
#       33490
#       53502
#       69819
#       92344
#       108324
#       125007
#       143700
#       161214
#       179846
#       199209
#       216090
#       230818
#       251425
#       266652
#       278813
#       293886
#       310203
#
# Disc length: 4358 seconds
#
# Revision: 1
# Processed by: cddbd v1.5.1PL0 Copyright (c) Steve Scherf et al.
# Submitted via: Kscd 1.3.3
#
DISCID=20110413
DTITLE=ben - neb
DYEAR=1900
DGENRE=
TTITLE0=
TTITLE1=
TTITLE2=
TTITLE3=
TTITLE4=
TTITLE5=
TTITLE6=
TTITLE7=good song
TTITLE8=
TTITLE9=
TTITLE10=
TTITLE11=
TTITLE12=
TTITLE13=
TTITLE14=
TTITLE15=
TTITLE16=
TTITLE17=
TTITLE18=
EXTD=
EXTT0=
EXTT1=
EXTT2=
EXTT3=
EXTT4=
EXTT5=
EXTT6=
EXTT7=
EXTT8=
EXTT9=
EXTT10=
EXTT11=
EXTT12=
EXTT13=
EXTT14=
EXTT15=
EXTT16=
EXTT17=
EXTT18=
PLAYORDER=
